<?xml version="1.0" encoding="iso-8859-1"?>
<!-- Generator: Adobe Illustrator 17.1.0, SVG Export Plug-In . SVG Version: 6.00 Build 0)  -->
<!DOCTYPE svg PUBLIC "-//W3C//DTD SVG 1.1//EN" "http://www.w3.org/Graphics/SVG/1.1/DTD/svg11.dtd">
<svg version="1.1" id="Capa_1" xmlns="http://www.w3.org/2000/svg" xmlns:xlink="http://www.w3.org/1999/xlink" x="0px" y="0px"
	 viewBox="0 0 441.721 441.721" style="enable-background:new 0 0 441.721 441.721;" xml:space="preserve">
<path d="M363.861,115.619H327.38c11.508-7.815,17.807-17.881,16.321-28.252c-2.232-15.589-21.835-26.063-48.778-26.063
	c-5.124,0-10.389,0.383-15.648,1.137c-3.462,0.496-6.764,1.251-9.903,2.19c0.494-2.741,0.776-5.544,0.776-8.392
	c0-32.063-21.49-56.24-49.987-56.24s-49.987,24.178-49.987,56.24c0,2.701,0.262,5.365,0.719,7.975
	c-2.699-0.746-5.513-1.354-8.444-1.774c-5.26-0.754-10.524-1.137-15.648-1.137c-26.943,0-46.546,10.474-48.778,26.063
	c-1.486,10.371,4.813,20.437,16.321,28.252H77.859c-9.649,0-17.5,7.851-17.5,17.5v23.376c0,9.649,7.851,17.5,17.5,17.5h14.052
	v254.226c0,7.444,6.056,13.5,13.5,13.5H336.31c7.444,0,13.5-6.056,13.5-13.5V173.995h14.052c9.649,0,17.5-7.851,17.5-17.5v-23.376
	C381.361,123.47,373.511,115.619,363.861,115.619z M281.4,77.289c4.558-0.652,9.107-0.984,13.521-0.984
	c20.057,0,33.002,6.706,33.931,13.19c1.114,7.775-14.368,21.063-42.113,25.04c-2.494,0.357-5.075,0.538-7.672,0.538
	c-13.654,0-25.814-4.86-33.209-9.146c1.552-1.585,2.955-3.106,4.139-4.462c3.628-4.156,8.438-10.343,12.451-17.79
	C268.046,80.682,274.439,78.287,281.4,77.289z M220.159,15c20.273,0,34.987,17.344,34.987,41.24
	c0,23.903-27.576,47.98-34.893,51.042c-7.378-3.311-35.082-27.857-35.082-51.042C185.172,32.344,199.886,15,220.159,15z
	 M112.868,89.494c0.929-6.483,13.874-13.189,33.931-13.189c4.414,0,8.964,0.332,13.521,0.984c6.248,0.895,12.03,2.923,17.199,5.491
	c4.161,7.844,9.282,14.373,13.106,18.712c1.289,1.463,2.828,3.116,4.535,4.837c-7.449,4.182-19.278,8.745-32.507,8.745
	c-2.598,0-5.179-0.182-7.671-0.538C127.236,110.558,111.754,97.271,112.868,89.494z M106.911,253.423H213.36v173.298H106.911
	V253.423z M228.36,426.721V253.423H334.81v173.298H228.36z M334.81,238.423H228.36v-64.127h-15v64.127H106.911v-64.428H334.81
	V238.423z M366.361,156.495c0,1.355-1.145,2.5-2.5,2.5H336.31H105.411H77.859c-1.355,0-2.5-1.145-2.5-2.5v-23.376
	c0-1.355,1.145-2.5,2.5-2.5h286.002c1.355,0,2.5,1.145,2.5,2.5V156.495z"/>
<g>
</g>
<g>
</g>
<g>
</g>
<g>
</g>
<g>
</g>
<g>
</g>
<g>
</g>
<g>
</g>
<g>
</g>
<g>
</g>
<g>
</g>
<g>
</g>
<g>
</g>
<g>
</g>
<g>
</g>
</svg>
