<?xml version="1.0" encoding="iso-8859-1"?>
<!-- Generator: Adobe Illustrator 17.1.0, SVG Export Plug-In . SVG Version: 6.00 Build 0)  -->
<!DOCTYPE svg PUBLIC "-//W3C//DTD SVG 1.1//EN" "http://www.w3.org/Graphics/SVG/1.1/DTD/svg11.dtd">
<svg version="1.1" id="Capa_1" xmlns="http://www.w3.org/2000/svg" xmlns:xlink="http://www.w3.org/1999/xlink" x="0px" y="0px"
	 viewBox="0 0 401.002 401.002" style="enable-background:new 0 0 401.002 401.002;" xml:space="preserve">
<path d="M392.281,138.228l-46.457-49.072c-4.145-4.379-11.111-7.89-17.593-9.124c0.524-6.054,0.637-11.753,0.637-16.497
	c0-16.06,0-49.477-42.13-49.477c-19.078,0-43.382,11.924-59.764,23.083c-1.96,1.335-4.403,3.074-7.074,5.124
	c-4.181-1.331-8.667-2.064-13.34-2.064s-9.16,0.733-13.34,2.064c-2.671-2.049-5.114-3.789-7.074-5.124
	c-16.382-11.159-40.685-23.083-59.763-23.083c-42.13,0-42.13,33.417-42.13,49.477c0,4.617,0.11,10.141,0.598,16.015H77.5
	c-7.541,0-17.138,4.129-22.321,9.605L8.721,138.228C3.516,141.263,0,146.894,0,153.342v43.376c0,9.649,7.851,17.5,17.5,17.5h4.734
	c-0.105,0.958-0.149,1.93-0.092,2.917l8.844,152.759c0.545,9.401,8.649,17.049,18.065,17.049H351.95
	c9.416,0,17.521-7.648,18.065-17.049l8.844-152.76c0.057-0.987,0.013-1.958-0.092-2.916h4.734c9.649,0,17.5-7.851,17.5-17.5v-43.376
	C401.002,146.894,397.486,141.263,392.281,138.228z M322.989,105.339c1.267-3.376,2.259-6.898,3.043-10.454
	c3.225,0.747,7.066,2.648,8.898,4.583l34.436,36.374H216.561v-22.479c4.01,2.188,8.133,4.111,12.086,5.753
	c18.813,7.818,41.872,12.869,58.748,12.869C299.07,131.986,314.724,127.363,322.989,105.339z M235.419,49.539
	c18.265-12.441,38.408-20.48,51.319-20.48c23.213,0,27.13,10.636,27.13,34.477c0,53.451-19.926,53.451-26.474,53.451
	c-14.826,0-36.122-4.71-52.992-11.721c-0.368-0.153-0.723-0.31-1.085-0.464c6.068-4.867,10.531-11.352,12.559-18.712l29.582-3.789
	c4.108-0.526,7.013-4.283,6.486-8.392c-0.526-4.108-4.283-7.012-8.393-6.486l-27.045,3.464c-1.51-8.055-5.893-15.225-12.156-20.607
	C234.706,50.032,235.056,49.786,235.419,49.539z M232.095,77.11c0,0.184-0.011,0.365-0.016,0.548
	c-0.16,0.686-0.225,1.402-0.182,2.135c-1.547,10.819-12.315,19.226-25.336,19.226c-13.019,0-23.785-8.405-25.335-19.222
	c0.044-0.736-0.022-1.456-0.183-2.144c-0.005-0.181-0.016-0.361-0.016-0.543c0-12.081,11.454-21.909,25.534-21.909
	S232.095,65.03,232.095,77.11z M126.384,29.058c12.91,0,33.054,8.039,51.318,20.48c0.363,0.247,0.713,0.494,1.068,0.74
	c-6.263,5.381-10.646,12.551-12.156,20.607l-27.044-3.464c-4.102-0.529-7.866,2.377-8.393,6.486s2.378,7.866,6.486,8.392
	l29.581,3.789c2.028,7.36,6.491,13.845,12.559,18.712c-0.362,0.155-0.717,0.311-1.085,0.464
	c-16.87,7.011-38.165,11.721-52.991,11.721c-6.548,0-26.474,0-26.474-53.451C99.254,39.694,103.171,29.058,126.384,29.058z
	 M196.561,371.944H49.052c-1.529,0-3.002-1.39-3.091-2.917L37.117,216.27c-0.042-0.736,0.247-1.206,0.497-1.471
	c0.25-0.265,0.702-0.58,1.438-0.58h157.509V371.944z M196.561,199.219H39.052H17.5c-1.355,0-2.5-1.145-2.5-2.5v-43.305l2.427-2.564
	c0.025-0.001,0.048-0.008,0.073-0.008h179.061V199.219z M31.635,135.842l34.436-36.374c2.35-2.482,8.011-4.918,11.429-4.918h9.512
	c0.795,3.671,1.814,7.307,3.121,10.789c8.266,22.023,23.919,26.646,35.595,26.646c16.875,0,39.936-5.051,58.747-12.869
	c3.953-1.642,8.076-3.565,12.086-5.753v22.478H31.635z M355.041,369.027c-0.089,1.527-1.562,2.917-3.091,2.917h-135.39V214.219
	h145.39c0.735,0,1.188,0.315,1.438,0.58c0.25,0.265,0.539,0.735,0.497,1.47L355.041,369.027z M386.002,196.719
	c0,1.355-1.145,2.5-2.5,2.5H361.95h-145.39v-48.376h166.941c0.025,0,0.048,0.007,0.073,0.008l2.427,2.564V196.719z"/>
<g>
</g>
<g>
</g>
<g>
</g>
<g>
</g>
<g>
</g>
<g>
</g>
<g>
</g>
<g>
</g>
<g>
</g>
<g>
</g>
<g>
</g>
<g>
</g>
<g>
</g>
<g>
</g>
<g>
</g>
</svg>
