<?xml version="1.0" encoding="iso-8859-1"?>
<!-- Generator: Adobe Illustrator 17.1.0, SVG Export Plug-In . SVG Version: 6.00 Build 0)  -->
<!DOCTYPE svg PUBLIC "-//W3C//DTD SVG 1.1//EN" "http://www.w3.org/Graphics/SVG/1.1/DTD/svg11.dtd">
<svg version="1.1" id="Capa_1" xmlns="http://www.w3.org/2000/svg" xmlns:xlink="http://www.w3.org/1999/xlink" x="0px" y="0px"
	 viewBox="0 0 377.798 377.798" style="enable-background:new 0 0 377.798 377.798;" xml:space="preserve">
<path d="M330.348,115.073h-34.232c11.486-8.011,17.037-17.842,15.624-27.707c-2.234-15.588-21.836-26.061-48.778-26.061
	c-5.124,0-10.389,0.382-15.649,1.136c-3.462,0.496-6.763,1.251-9.902,2.191c0.494-2.741,0.776-5.544,0.776-8.391
	c0-32.062-21.49-56.24-49.987-56.24s-49.987,24.178-49.987,56.24c0,2.701,0.262,5.364,0.719,7.975
	c-2.699-0.747-5.513-1.355-8.445-1.775c-5.26-0.753-10.525-1.136-15.649-1.136c-26.942,0-46.544,10.473-48.778,26.061
	c-1.414,9.864,4.137,19.696,15.624,27.707H47.45c-9.649,0-17.5,7.851-17.5,17.5v79.458v71.997v76.27c0,9.649,7.851,17.5,17.5,17.5
	h282.898c9.649,0,17.5-7.851,17.5-17.5v-76.27v-71.997v-79.458C347.848,122.923,339.998,115.073,330.348,115.073z M249.44,77.29
	c4.558-0.653,9.107-0.984,13.521-0.984c20.055,0,33,6.706,33.93,13.189c0.556,3.88-2.993,8.88-9.494,13.377
	c-8.1,5.602-19.989,9.853-32.62,11.663c-2.494,0.357-5.075,0.539-7.672,0.539c-13.653,0-25.814-4.86-33.209-9.145
	c1.552-1.585,2.955-3.106,4.139-4.462c3.628-4.156,8.438-10.342,12.45-17.789C236.085,80.683,242.478,78.287,249.44,77.29z
	 M167.9,130.073h41.997v81.958H167.9V130.073z M188.198,15c20.273,0,34.987,17.344,34.987,41.24
	c0,23.903-27.576,47.98-34.893,51.042c-7.378-3.311-35.082-27.857-35.082-51.042C153.211,32.344,167.925,15,188.198,15z
	 M123.021,114.534c-12.631-1.81-24.521-6.061-32.62-11.663c-6.5-4.497-10.05-9.497-9.494-13.377
	c0.929-6.483,13.875-13.189,33.93-13.189c4.415,0,8.964,0.331,13.521,0.984c6.249,0.896,12.032,2.924,17.201,5.492
	c4.161,7.844,9.282,14.372,13.105,18.71c1.289,1.463,2.828,3.116,4.535,4.836c-7.449,4.182-19.277,8.744-32.506,8.744
	C128.095,115.073,125.513,114.892,123.021,114.534z M44.95,132.573c0-1.355,1.145-2.5,2.5-2.5h83.242h0.004H152.9v81.958H44.95
	V132.573z M152.9,362.798H47.45c-1.355,0-2.5-1.145-2.5-2.5v-76.27H152.9V362.798z M209.897,361.798H167.9v-77.77h41.997V361.798z
	 M332.848,360.298c0,1.355-1.145,2.5-2.5,2.5H224.897v-78.77h107.951V360.298z M332.848,269.028H44.95v-41.997h287.898V269.028z
	 M332.848,212.031H224.897v-81.958h105.451c1.355,0,2.5,1.145,2.5,2.5V212.031z"/>
<g>
</g>
<g>
</g>
<g>
</g>
<g>
</g>
<g>
</g>
<g>
</g>
<g>
</g>
<g>
</g>
<g>
</g>
<g>
</g>
<g>
</g>
<g>
</g>
<g>
</g>
<g>
</g>
<g>
</g>
</svg>
