<?xml version="1.0" encoding="iso-8859-1"?>
<!-- Generator: Adobe Illustrator 17.1.0, SVG Export Plug-In . SVG Version: 6.00 Build 0)  -->
<!DOCTYPE svg PUBLIC "-//W3C//DTD SVG 1.1//EN" "http://www.w3.org/Graphics/SVG/1.1/DTD/svg11.dtd">
<svg version="1.1" id="Capa_1" xmlns="http://www.w3.org/2000/svg" xmlns:xlink="http://www.w3.org/1999/xlink" x="0px" y="0px"
	 viewBox="0 0 364.795 364.795" style="enable-background:new 0 0 364.795 364.795;" xml:space="preserve">
<path d="M335.269,201.094H305.53v-73.637h2.839c9.649,0,17.5-7.851,17.5-17.5V84.85c0-9.649-7.851-17.5-17.5-17.5h-16.323
	c0.309-1.197,0.483-2.462,0.483-3.813c0-0.98,0.048-2.408,0.104-4.062c0.449-13.421,1.285-38.402-11.413-51.533
	C276.123,2.672,269.588,0,261.795,0c-18.944,0-42.015,16.027-54.081,25.581c-3.627,2.872-17.283,13.993-25.316,24.717
	c-8.033-10.724-21.689-21.844-25.316-24.717C145.015,16.027,121.944,0,103,0c-7.793,0-14.328,2.672-19.425,7.941
	C70.877,21.072,71.713,46.054,72.162,59.475c0.056,1.653,0.104,3.081,0.104,4.062c0,1.351,0.174,2.616,0.483,3.813H56.426
	c-9.649,0-17.5,7.851-17.5,17.5v25.107c0,9.649,7.851,17.5,17.5,17.5h2.839v73.637H29.526c-9.649,0-17.5,7.851-17.5,17.5v25.107
	c0,9.649,7.851,17.5,17.5,17.5h2.994v90.094c0,7.444,6.056,13.5,13.5,13.5h272.754c7.444,0,13.5-6.056,13.5-13.5v-90.094h2.994
	c9.649,0,17.5-7.851,17.5-17.5v-25.107C352.769,208.944,344.918,201.094,335.269,201.094z M290.53,201.094H189.897v-73.637H290.53
	V201.094z M310.869,84.85v25.107c0,1.355-1.145,2.5-2.5,2.5H292.03H189.897V82.35h118.472
	C309.725,82.35,310.869,83.494,310.869,84.85z M218.724,36.012C235.745,22.854,251.846,15,261.795,15
	c3.673,0,6.419,1.07,8.642,3.369c8.277,8.559,7.525,31.015,7.204,40.604c-0.053,1.583-0.1,2.976-0.109,4.131
	c-0.749,0.514-84.805,0.78-85.85,0.183C193.642,59.312,202.652,48.436,218.724,36.012z M94.358,18.369
	C96.581,16.07,99.327,15,103,15c9.949,0,26.05,7.854,43.071,21.012c16.071,12.424,25.082,23.3,27.042,27.275
	c-1.045,0.598-85.101,0.331-85.85-0.183c-0.01-1.153-0.057-2.547-0.109-4.131C86.833,49.384,86.081,26.928,94.358,18.369z
	 M53.926,109.957V84.85c0-1.355,1.145-2.5,2.5-2.5h118.472v30.107H72.765H56.426C55.07,112.457,53.926,111.313,53.926,109.957z
	 M74.265,127.457h100.633v73.637H74.265V127.457z M27.026,243.701v-25.107c0-1.355,1.145-2.5,2.5-2.5h43.238h102.133v30.107H46.021
	H29.526C28.171,246.201,27.026,245.057,27.026,243.701z M47.521,261.201h127.377v88.594H47.521V261.201z M317.274,349.795H189.897
	v-88.594h127.377V349.795z M337.769,243.701c0,1.355-1.145,2.5-2.5,2.5h-16.494H189.897v-30.107H292.03h43.238
	c1.355,0,2.5,1.145,2.5,2.5V243.701z"/>
<g>
</g>
<g>
</g>
<g>
</g>
<g>
</g>
<g>
</g>
<g>
</g>
<g>
</g>
<g>
</g>
<g>
</g>
<g>
</g>
<g>
</g>
<g>
</g>
<g>
</g>
<g>
</g>
<g>
</g>
</svg>
